<mxfile host="app.diagrams.net" modified="2023-07-24T06:16:19.333Z" agent="Mozilla/5.0 (Windows NT 10.0; Win64; x64) AppleWebKit/537.36 (KHTML, like Gecko) Chrome/115.0.0.0 Safari/537.36" version="21.6.5" etag="_C2Mu6x2PmTirLMk2QD4" type="github">
  <diagram name="Page-1" id="zhqDu9RX-_Pf-eMxB9GA">
    <mxGraphModel>
      <root>
        <mxCell id="0" />
        <mxCell id="1" parent="0" />
      </root>
    </mxGraphModel>
  </diagram>
</mxfile>
